<svg xmlns="http://www.w3.org/2000/svg" width="17.633" height="15.97" viewBox="0 0 17.633 15.97">
  <g id="Logo" transform="translate(-24.5 -27.5)">
    <g id="menu_1_" data-name="menu (1)" transform="translate(25 -2.599)">
      <g id="_x33__6_" transform="translate(0 30.599)">
        <g id="Grupo_2707" data-name="Grupo 2707">
          <path id="Trazado_1871" data-name="Trazado 1871" d="M15.8,43.905H.832a.832.832,0,0,0,0,1.663H15.8a.832.832,0,0,0,0-1.663ZM.832,32.262H15.8a.832.832,0,1,0,0-1.663H.832a.832.832,0,1,0,0,1.663Zm14.97,4.99H.832a.832.832,0,0,0,0,1.663H15.8a.832.832,0,0,0,0-1.663Z" transform="translate(0 -30.599)" fill="#bcbccb" stroke="#707070" stroke-width="1"/>
        </g>
      </g>
    </g>
  </g>
</svg>
